#!OML:ASF H:\MichaelJackson\Top Level 1\Subject 1\Session 1\male.ASF
:FULLY-SPECIFIED
:DEGREES
94
root 4.45652 16.7504 -32.4515 10.9066 -3.893 -5.57829
lowerback -3.57136 3.18497 -1.35706
upperback -1.04062 4.25482 6.00939
thorax 0.364384 2.16058 7.16387
lowerneck -3.459 -3.11653 -5.62081
upperneck -13.2566 -4.1428 0.468215
head -3.57436 -1.80346 1.20342
rclavicle -1.03368e-014 -4.13472e-014
rhumerus -37.1314 8.66014 -83.206
rradius 36.3528
rwrist 13.6944
rhand -20.3624 -21.5604
rfingers 7.12502
rthumb 5.98994 -51.4557
lclavicle -1.03368e-014 -4.13472e-014
lhumerus -39.497 -6.31479 101.093
lradius 38.6697
lwrist 9.83249
lhand -6.32682 6.39439
lfingers 7.12502
lthumb 19.5182 35.4347
rfemur -17.4966 -3.1547 24.5674
rtibia 31.6415
rfoot -11.2838 -20.6002
rtoes -27.716
lfemur -33.3373 13.2334 -17.0048
ltibia 53.7601
lfoot -18.6809 -6.16815
ltoes 11.5398
95
root 4.44288 16.7525 -32.4509 10.9645 -3.89403 -5.78685
lowerback -3.42889 3.30566 -1.38149
upperback -1.01789 4.41969 6.1625
thorax 0.27145 2.24693 7.33597
lowerneck -3.50847 -3.16879 -5.63213
upperneck -13.4072 -4.22273 0.365123
head -3.61817 -1.83519 1.17402
rclavicle -3.81667e-014 2.22639e-014
rhumerus -36.8914 9.10164 -83.163
rradius 36.3739
rwrist 13.8763
rhand -19.9067 -21.7026
rfingers 7.12502
rthumb 6.42989 -51.585
lclavicle -3.81667e-014 2.22639e-014
lhumerus -39.5109 -6.06256 101.108
lradius 38.7891
lwrist 9.88666
lhand -7.32474 6.27885
lfingers 7.12502
lthumb 18.5585 35.4136
rfemur -17.3662 -3.11801 24.8497
rtibia 31.3305
rfoot -11.4827 -20.5404
rtoes -27.2263
lfemur -34.4739 13.841 -16.7413
ltibia 55.2554
lfoot -17.1597 -6.97258
ltoes 11.9535
96
root 4.43042 16.7549 -32.4481 11.0109 -3.87558 -5.99581
lowerback -3.29521 3.42698 -1.4134
upperback -1.00501 4.58628 6.3248
thorax 0.170472 2.33487 7.52197
lowerneck -3.50143 -3.22182 -5.64409
upperneck -13.5657 -4.30978 0.245618
head -3.67568 -1.86929 1.14094
rclavicle 2.00773e-014 3.02153e-014
rhumerus -36.6543 9.52145 -83.0902
rradius 36.4159
rwrist 14.0148
rhand -19.7291 -21.7437
rfingers 7.12502
rthumb 6.60133 -51.6208
lclavicle 2.00773e-014 3.02153e-014
lhumerus -39.5631 -5.80787 101.148
lradius 38.896
lwrist 9.87289
lhand -8.35207 6.1507
lfingers 7.12502
lthumb 17.5701 35.3768
rfemur -17.2071 -3.11298 25.1255
rtibia 31.0107
rfoot -11.6581 -20.4674
rtoes -26.8331
lfemur -35.5814 14.4059 -16.4854
ltibia 56.6819
lfoot -15.6662 -7.69092
ltoes 12.5862
97
root 4.4194 16.7575 -32.4428 11.066 -3.83961 -6.20825
lowerback -3.17376 3.52453 -1.41283
upperback -0.994015 4.7199 6.47914
thorax 0.0813354 2.40583 7.6807
lowerneck -3.53311 -3.25405 -5.66532
upperneck -13.6933 -4.36465 0.13709
head -3.71588 -1.88813 1.11107
rclavicle 2.36554e-014 -1.11319e-014
rhumerus -36.3529 9.97091 -83.0426
rradius 36.4336
rwrist 14.1121
rhand -19.8367 -21.6577
rfingers 7.12502
rthumb 6.49749 -51.538
lclavicle 2.36554e-014 -1.11319e-014
lhumerus -39.6163 -5.48714 101.14
lradius 38.9933
lwrist 9.80947
lhand -9.36696 5.96328
lfingers 7.12502
lthumb 16.5932 35.2739
rfemur -17.0465 -3.12632 25.3971
rtibia 30.6873
rfoot -11.7785 -20.4023
rtoes -26.6282
lfemur -36.6668 14.9311 -16.2468
ltibia 58.0155
lfoot -14.3203 -8.28372
ltoes 13.287
98
root 4.40998 16.76 -32.4349 11.1333 -3.77796 -6.418
lowerback -3.07578 3.59491 -1.38317
upperback -0.9849 4.81584 6.62426
thorax 0.0114129 2.45716 7.81383
lowerneck -3.60735 -3.26604 -5.69637
upperneck -13.7884 -4.3876 0.0389356
head -3.7373 -1.89194 1.08415
rclavicle 7.09661e-014 -6.36111e-015
rhumerus -36.0092 10.4397 -83.0173
rradius 36.4538
rwrist 14.1982
rhand -20.3621 -21.4228
rfingers 7.12502
rthumb 5.99027 -51.3181
lclavicle 7.09661e-014 -6.36111e-015
lhumerus -39.6658 -5.08751 101.078
lradius 39.0787
lwrist 9.70763
lhand -10.3015 5.71918
lfingers 7.12502
lthumb 15.6933 35.1028
rfemur -16.8862 -3.15537 25.6586
rtibia 30.3616
rfoot -11.8538 -20.3455
rtoes -26.6964
lfemur -37.7169 15.4016 -16.0293
ltibia 59.2302
lfoot -13.203 -8.73875
ltoes 14.2271
99
root 4.402 16.7625 -32.424 11.2061 -3.69498 -6.62803
lowerback -3.00755 3.65047 -1.33503
upperback -0.988362 4.89147 6.76792
thorax -0.0506211 2.49825 7.93625
lowerneck -3.64921 -3.26656 -5.74161
upperneck -13.8745 -4.39668 -0.0535133
head -3.76165 -1.88844 1.06196
rclavicle -9.66093e-014 -8.42847e-014
rhumerus -35.6629 10.8932 -82.9886
rradius 36.491
rwrist 14.2522
rhand -20.7944 -21.2355
rfingers 7.12502
rthumb 5.57287 -51.1422
lclavicle -9.66093e-014 -8.42847e-014
lhumerus -39.7442 -4.62746 100.992
lradius 39.1513
lwrist 9.58076
lhand -11.117 5.4468
lfingers 7.12502
lthumb 14.9078 34.8904
rfemur -16.721 -3.17371 25.9134
rtibia 30.042
rfoot -11.8907 -20.3313
rtoes -26.8742
lfemur -38.7166 15.8343 -15.8348
ltibia 60.2985
lfoot -12.4159 -9.04364
ltoes 15.1773
